<svg width="494" height="234" xmlns="http://www.w3.org/2000/svg" xmlns:xlink="http://www.w3.org/1999/xlink" xml:space="preserve" overflow="hidden"><g transform="translate(-96 -404)"><g><g><g><g><path d="M327.199 100.339C326.062 98.2131 324.779 98.2131 323.642 100.339L315.459 114.887C314.175 116.853 313.493 119.126 313.493 121.627 313.493 128.138 318.802 133.674 325.474 133.674 332.146 133.674 337.455 128.138 337.455 121.627 337.455 119.126 336.693 116.853 335.409 114.887L327.226 100.339 327.199 100.339Z" fill="#0F172A" fill-rule="nonzero" fill-opacity="1" transform="matrix(1.00462 0 0 1 97 404)"/><path d="M176.276 45.0082 314.469 44.9547C312.504 41.8659 310.378 38.8841 308.171 36.0761 291.377 14.7621 269.087 3.02196 245.392 3.02196 221.698 3.02196 199.408 14.7621 182.614 36.0761 180.394 38.8975 178.268 41.8927 176.276 45.0216L176.276 45.0082Z" fill="#0F172A" fill-rule="nonzero" fill-opacity="1" transform="matrix(1.00462 0 0 1 97 404)"/><path d="M318.187 44.9414 388.801 44.9146C384.883 41.9595 380.711 39.1248 376.352 36.4371 372.876 34.2977 369.239 32.2251 365.535 30.2729 338.11 15.8451 305.176 6.83277 269.715 3.98466 285.092 9.33323 299.36 19.7763 310.645 34.1105 313.319 37.5069 315.86 41.1439 318.187 44.9414Z" fill="#0F172A" fill-rule="nonzero" fill-opacity="1" transform="matrix(1.00462 0 0 1 97 404)"/><path d="M71.5371 160.698C71.3232 160.377 71.2965 159.962 71.4837 159.615 71.6709 159.267 72.0185 159.053 72.4063 159.053L73.6231 159.053C73.9707 159.053 74.305 159.227 74.4922 159.521 80.5361 168.48 88.4654 176.957 98.0794 184.713L170.78 184.686C166.461 177.171 162.877 169.015 160.096 160.43 159.989 160.109 160.043 159.762 160.243 159.481 160.444 159.214 160.751 159.053 161.099 159.053L162.182 159.053C162.637 159.053 163.038 159.347 163.185 159.775 166.073 168.627 169.857 176.998 174.417 184.673L316.341 184.606C320.888 176.957 324.658 168.6 327.547 159.775 327.694 159.347 328.095 159.053 328.549 159.053L329.646 159.053C329.98 159.053 330.301 159.214 330.502 159.481 330.702 159.748 330.756 160.109 330.649 160.43 327.881 168.988 324.297 177.118 320.005 184.606L392.826 184.579C402.36 176.851 410.249 168.427 416.253 159.521 416.453 159.227 416.774 159.053 417.122 159.053L418.338 159.053C418.726 159.053 419.087 159.267 419.261 159.615 419.448 159.962 419.422 160.377 419.208 160.698 413.592 169.149 406.384 177.171 397.733 184.593L438.329 184.593C450.564 176.998 460.726 168.734 468.562 160.003 480.556 146.618 486.854 132.457 487.268 117.896L452.543 117.896C452.262 117.896 451.994 117.789 451.794 117.588 451.593 117.388 451.486 117.12 451.486 116.84L451.486 115.783C451.486 115.208 451.954 114.727 452.543 114.727L487.268 114.727C486.84 100.179 480.556 86.0318 468.562 72.647 460.646 63.8218 450.336 55.4647 437.914 47.8296L397.479 47.8296C406.237 55.3176 413.552 63.4207 419.221 71.9517 419.435 72.2726 419.448 72.6871 419.275 73.0347 419.087 73.3824 418.74 73.5963 418.352 73.5963L417.135 73.5963C416.787 73.5963 416.453 73.4225 416.266 73.1283 410.209 64.1427 402.226 55.6385 392.572 47.843L319.925 47.8697C324.257 55.4112 327.867 63.5945 330.649 72.2057 330.756 72.5266 330.702 72.8743 330.502 73.1551 330.301 73.4225 329.993 73.583 329.646 73.583L328.549 73.583C328.095 73.583 327.694 73.2888 327.547 72.8609 324.645 63.9689 320.847 55.5717 316.261 47.8697L174.444 47.9232C169.871 55.6118 166.087 63.9823 163.185 72.8475 163.038 73.2754 162.637 73.5696 162.182 73.5696L161.099 73.5696C160.765 73.5696 160.444 73.4091 160.243 73.1417 160.043 72.8743 159.989 72.5133 160.096 72.1923 162.877 63.6079 166.474 55.4513 170.793 47.9232L98.0259 47.9499C88.4386 55.7054 80.5227 64.1695 74.4922 73.1016 74.2917 73.3958 73.9707 73.5696 73.6231 73.5696L72.4063 73.5696C72.0185 73.5696 71.6575 73.3557 71.4837 73.008 71.3098 72.6603 71.3232 72.2458 71.5371 71.9249 77.1665 63.4341 84.4272 55.3845 93.1186 47.9366L52.5631 47.9366C40.2614 55.5583 30.0456 63.8486 22.1832 72.6202 10.189 86.005 3.89106 100.165 3.47654 114.727L38.2022 114.727C38.483 114.727 38.7504 114.834 38.951 115.034 39.1515 115.235 39.2585 115.502 39.2585 115.783L39.2585 116.84C39.2585 117.415 38.7905 117.896 38.2022 117.896L3.47654 117.896C3.90443 132.444 10.189 146.591 22.1832 159.976 30.0723 168.774 40.3416 177.105 52.6968 184.726L93.1721 184.726C84.4539 177.252 77.1799 169.175 71.5371 160.684L71.5371 160.698ZM368.597 91.0193C368.597 90.2571 369.051 89.8025 369.814 89.8025L380.885 89.8025C381.567 89.8025 381.875 90.1101 382.557 90.7118L422.952 128.914 423.941 128.914 423.941 91.0193C423.941 90.2571 424.396 89.8025 425.158 89.8025L434.638 89.8025C435.4 89.8025 435.855 90.2571 435.855 91.0193L435.855 141.657C435.855 142.419 435.4 142.874 434.638 142.874L423.567 142.874C422.805 142.874 422.51 142.566 421.828 141.964L381.5 103.762 380.444 103.762 380.444 141.657C380.444 142.419 380.069 142.874 379.307 142.874L369.827 142.874C369.065 142.874 368.61 142.419 368.61 141.657L368.61 91.0193 368.597 91.0193ZM291.043 103.214C291.043 94.7232 296.204 89.495 303.705 89.495L346.908 89.495C354.41 89.495 359.571 94.7232 359.571 103.214L359.571 129.435C359.571 137.926 354.49 143.155 346.841 143.155L303.719 143.155C296.217 143.155 291.056 137.926 291.056 129.435L291.056 103.214 291.043 103.214ZM201.441 91.0193C201.441 90.2571 201.895 89.8025 202.657 89.8025L216.376 89.8025C217.139 89.8025 217.593 90.1769 218.048 90.9391L241.475 129.221 242.531 129.221 265.958 90.9391C266.412 90.1769 266.867 89.8025 267.629 89.8025L281.428 89.8025C282.191 89.8025 282.565 90.2571 282.565 91.0193L282.565 141.657C282.565 142.419 282.191 142.874 281.428 142.874L271.961 142.874C271.199 142.874 270.745 142.419 270.745 141.657L270.745 105.581 269.916 105.581 247.933 141.657C247.478 142.419 246.944 142.874 246.115 142.874L237.931 142.874C237.169 142.874 236.648 142.419 236.193 141.657L214.13 105.581 213.301 105.581 213.301 141.657C213.301 142.419 212.927 142.874 212.164 142.874L202.697 142.874C201.935 142.874 201.481 142.419 201.481 141.657L201.481 91.0193 201.441 91.0193ZM122.656 91.0193C122.656 90.2571 123.111 89.8025 123.873 89.8025L133.353 89.8025C134.115 89.8025 134.49 90.2571 134.49 91.0193L134.49 128.165C134.49 131.428 136.001 132.484 138.889 132.484L174.885 132.484C177.76 132.484 179.284 131.428 179.284 128.165L179.284 91.0193C179.284 90.2571 179.659 89.8025 180.421 89.8025L189.901 89.8025C190.663 89.8025 191.118 90.2571 191.118 91.0193L191.118 128.994C191.118 137.632 187.026 142.86 177.626 142.86L136.161 142.86C126.761 142.86 122.669 137.632 122.669 128.994L122.669 91.0193 122.656 91.0193ZM54.9432 141.644 54.9432 91.0059C54.9432 90.2438 55.3978 89.7891 56.16 89.7891L65.6403 89.7891C66.4025 89.7891 66.7769 90.2438 66.7769 91.0059L66.7769 132.471 116.345 132.471C117.107 132.471 117.562 132.925 117.562 133.688L117.562 141.644C117.562 142.406 117.107 142.86 116.345 142.86L56.16 142.86C55.3978 142.86 54.9432 142.406 54.9432 141.644Z" fill="#0F172A" fill-rule="nonzero" fill-opacity="1" transform="matrix(1.00462 0 0 1 97 404)"/><path d="M96.7824 187.708 57.6977 187.708C62.7922 190.65 68.2077 193.485 73.8638 196.145 103.401 210.079 139.25 220.013 178.776 225.295 154.146 219.532 131.682 210.587 112.761 198.913 107.078 195.41 101.69 191.639 96.769 187.695L96.7824 187.708Z" fill="#0F172A" fill-rule="nonzero" fill-opacity="1" transform="matrix(1.00462 0 0 1 97 404)"/><path d="M393.936 44.9146 432.994 44.9146C427.939 41.9863 422.537 39.1783 416.894 36.5174 387.357 22.5843 351.495 12.6494 311.982 7.36767 336.612 13.1308 359.076 22.0762 377.997 33.7495 383.666 37.2528 389.028 41.0102 393.936 44.9146Z" fill="#0F172A" fill-rule="nonzero" fill-opacity="1" transform="matrix(1.00462 0 0 1 97 404)"/><path d="M172.558 45.0082C174.898 41.1974 177.452 37.5336 180.14 34.1105 191.586 19.5891 205.546 9.31987 220.949 3.99804 180.782 7.27404 143.288 18.6531 114.446 36.4238 110.02 39.1515 105.781 42.0398 101.837 45.0216L172.572 44.9949 172.558 45.0082Z" fill="#0F172A" fill-rule="nonzero" fill-opacity="1" transform="matrix(1.00462 0 0 1 97 404)"/><path d="M178.789 7.36767C139.277 12.6494 103.415 22.5843 73.8771 36.5174 68.1408 39.2184 62.6585 42.0799 57.5105 45.0617L96.6888 45.0617C101.636 41.077 107.052 37.2795 112.775 33.7495 131.695 22.0896 154.159 13.1441 178.789 7.36767Z" fill="#0F172A" fill-rule="nonzero" fill-opacity="1" transform="matrix(1.00462 0 0 1 97 404)"/><path d="M318.253 187.601C315.913 191.439 313.346 195.116 310.645 198.552 299.36 212.873 285.106 223.316 269.728 228.665 309.936 225.402 347.47 214.023 376.352 196.226 380.792 193.485 385.044 190.583 389.042 187.574L318.267 187.601 318.253 187.601Z" fill="#0F172A" fill-rule="nonzero" fill-opacity="1" transform="matrix(1.00462 0 0 1 97 404)"/><path d="M172.558 187.668 101.917 187.708C105.848 190.663 110.047 193.525 114.433 196.239 143.275 214.023 180.768 225.402 220.936 228.665 205.532 223.343 191.572 213.074 180.127 198.552 177.439 195.143 174.898 191.492 172.558 187.668Z" fill="#0F172A" fill-rule="nonzero" fill-opacity="1" transform="matrix(1.00462 0 0 1 97 404)"/><path d="M314.536 187.601 176.289 187.668C178.268 190.77 180.394 193.765 182.614 196.6 199.408 217.914 221.698 229.654 245.392 229.654 269.087 229.654 291.377 217.914 308.171 196.6 310.418 193.752 312.557 190.73 314.536 187.615L314.536 187.601Z" fill="#0F172A" fill-rule="nonzero" fill-opacity="1" transform="matrix(1.00462 0 0 1 97 404)"/><path d="M394.163 187.574C389.189 191.559 383.747 195.383 378.01 198.927 359.09 210.587 336.626 219.532 311.996 225.309 351.508 220.027 387.37 210.092 416.908 196.159 422.684 193.431 428.207 190.556 433.368 187.561L394.163 187.561 394.163 187.574Z" fill="#0F172A" fill-rule="nonzero" fill-opacity="1" transform="matrix(1.00462 0 0 1 97 404)"/></g></g></g></g></g></svg>