<svg width="292" height="140" xmlns="http://www.w3.org/2000/svg" xmlns:xlink="http://www.w3.org/1999/xlink" xml:space="preserve" overflow="hidden"><g transform="translate(-86 -114)"><g><g><g><g><g><path d="M145.333 138.134C106.631 138.134 70.2285 131.013 42.8254 118.089 29.4489 111.777 18.9348 104.419 11.5845 96.2124 3.90114 87.633 0 78.4986 0 69.0709 0 59.6431 3.90114 50.5008 11.5845 41.9294 18.9428 33.7227 29.4489 26.3644 42.8254 20.0528 70.2285 7.12038 106.631 0 145.333 0 184.036 0 220.446 7.12038 247.842 20.0449 261.218 26.3565 271.732 33.7148 279.082 41.9214 286.774 50.5008 290.667 59.6272 290.667 69.0629 290.667 78.4986 286.766 87.633 279.082 96.2044 271.724 104.411 261.218 111.769 247.842 118.081 220.446 131.006 184.044 138.126 145.333 138.126L145.333 138.134ZM108.114 116.662C118.073 129.301 131.291 136.263 145.341 136.263 159.392 136.263 172.61 129.301 182.569 116.662 183.901 114.973 185.17 113.181 186.343 111.333L104.364 111.373C105.537 113.212 106.798 114.989 108.114 116.67L108.114 116.662ZM188.547 111.333C187.16 113.609 185.637 115.789 184.036 117.827 177.343 126.319 168.891 132.512 159.772 135.684 183.615 133.749 205.873 127.001 223 116.448 225.632 114.822 228.154 113.101 230.524 111.317L188.555 111.333 188.547 111.333ZM60.2616 111.389C62.5928 113.141 65.0825 114.838 67.6833 116.448 84.7865 126.993 107.02 133.741 130.839 135.676 121.705 132.52 113.427 126.43 106.639 117.819 105.045 115.797 103.539 113.633 102.151 111.365L60.2616 111.389ZM34.0399 111.405C37.0609 113.141 40.2722 114.814 43.6262 116.4 61.1417 124.662 82.3998 130.554 105.838 133.686 91.2329 130.268 77.9119 124.963 66.6921 118.041 63.3222 115.964 60.1268 113.728 57.2089 111.389L34.0319 111.389 34.0399 111.405ZM233.553 111.309C230.604 113.672 227.376 115.94 223.975 118.041 212.755 124.956 199.434 130.26 184.829 133.686 208.259 130.554 229.525 124.662 247.041 116.4 250.466 114.782 253.741 113.078 256.802 111.302L233.553 111.302 233.553 111.309ZM1.88714 70.0144C2.14087 78.6414 5.86758 87.0304 12.98 94.9675 17.6582 100.185 23.7478 105.125 31.0744 109.644L55.0759 109.644C49.9061 105.212 45.5926 100.423 42.2465 95.3877 42.1197 95.1974 42.1038 94.9516 42.2148 94.7455 42.3258 94.5393 42.532 94.4125 42.7619 94.4125L43.4835 94.4125C43.6896 94.4125 43.8879 94.5155 43.9989 94.69 47.5829 100.003 52.2849 105.03 57.9859 109.628L101.097 109.613C98.5356 105.156 96.4106 100.32 94.7613 95.2292 94.6979 95.0389 94.7296 94.8327 94.8486 94.6662 94.9675 94.5076 95.1499 94.4125 95.356 94.4125L95.9983 94.4125C96.2679 94.4125 96.5057 94.5869 96.593 94.8406 98.3057 100.09 100.55 105.053 103.253 109.605L187.414 109.565C190.109 105.03 192.345 100.074 194.058 94.8406 194.145 94.5869 194.383 94.4125 194.653 94.4125L195.303 94.4125C195.501 94.4125 195.692 94.5076 195.81 94.6662 195.929 94.8248 195.961 95.0389 195.898 95.2292 194.256 100.304 192.131 105.125 189.586 109.565L232.768 109.549C238.422 104.966 243.1 99.9708 246.66 94.69 246.779 94.5155 246.969 94.4125 247.176 94.4125L247.897 94.4125C248.127 94.4125 248.341 94.5393 248.444 94.7455 248.555 94.9516 248.539 95.1974 248.413 95.3877 245.082 100.399 240.808 105.156 235.678 109.557L259.751 109.557C267.006 105.053 273.033 100.153 277.679 94.9754 284.791 87.0383 288.526 78.6414 288.772 70.0065L268.18 70.0065C268.013 70.0065 267.855 69.9431 267.736 69.8241 267.617 69.7052 267.553 69.5466 267.553 69.3801L267.553 68.7537C267.553 68.4128 267.831 68.1273 268.18 68.1273L288.772 68.1273C288.518 59.5004 284.791 51.1113 277.679 43.1743 272.985 37.941 266.872 32.9853 259.505 28.4577L235.528 28.4577C240.721 32.8981 245.058 37.7031 248.42 42.7619 248.547 42.9522 248.555 43.198 248.452 43.4042 248.341 43.6104 248.135 43.7372 247.905 43.7372L247.183 43.7372C246.977 43.7372 246.779 43.6341 246.668 43.4597 243.076 38.1313 238.342 33.0884 232.618 28.4657L189.539 28.4815C192.108 32.9536 194.248 37.8062 195.898 42.9126 195.961 43.1029 195.929 43.309 195.81 43.4756 195.692 43.6341 195.509 43.7293 195.303 43.7293L194.653 43.7293C194.383 43.7293 194.145 43.5549 194.058 43.3011 192.338 38.0282 190.086 33.0487 187.366 28.4815L103.269 28.5132C100.558 33.0725 98.3136 38.0362 96.593 43.2932 96.5057 43.5469 96.2679 43.7214 95.9983 43.7214L95.356 43.7214C95.1578 43.7214 94.9675 43.6262 94.8486 43.4676 94.7296 43.309 94.6979 43.095 94.7613 42.9047 96.4106 37.8141 98.5435 32.9774 101.105 28.5132L57.9542 28.5291C52.269 33.128 47.5749 38.1472 43.9989 43.4438 43.8799 43.6183 43.6896 43.7214 43.4835 43.7214L42.7619 43.7214C42.532 43.7214 42.3179 43.5945 42.2148 43.3883 42.1117 43.1822 42.1197 42.9364 42.2465 42.7461 45.5847 37.7111 49.8902 32.9377 55.0442 28.5212L30.9951 28.5212C23.7002 33.0408 17.6424 37.9569 12.98 43.1584 5.86758 51.0955 2.13294 59.4925 1.88714 68.1273L22.4792 68.1273C22.6457 68.1273 22.8043 68.1907 22.9232 68.3097 23.0421 68.4286 23.1056 68.5872 23.1056 68.7537L23.1056 69.3801C23.1056 69.7211 22.828 70.0065 22.4792 70.0065L1.88714 70.0065 1.88714 70.0144ZM105.838 4.45619C82.4077 7.5882 61.1417 13.4796 43.6262 21.7417 40.2246 23.3434 36.9737 25.0403 33.9209 26.8085L57.1534 26.8085C60.0871 24.4456 63.2984 22.1937 66.6921 20.1004 77.9119 13.1862 91.2329 7.88158 105.838 4.45619ZM130.839 2.45804C107.02 4.40068 84.7865 11.1484 67.6833 21.6862 65.0587 23.3038 62.5452 25.0165 60.2061 26.7847L102.151 26.7688C103.539 24.509 105.053 22.3364 106.647 20.3066 113.434 11.6955 121.713 5.60591 130.847 2.45011L130.839 2.45804ZM145.333 1.87128C131.283 1.87128 118.065 8.83308 108.106 21.4722 106.79 23.1452 105.529 24.9213 104.348 26.7768L186.296 26.745C185.13 24.9134 183.869 23.1452 182.561 21.4801 172.602 8.84101 159.384 1.87921 145.333 1.87921L145.333 1.87128ZM184.036 20.3145C185.622 22.3285 187.128 24.4852 188.508 26.7371L230.382 26.7213C228.058 24.9689 225.584 23.2879 223 21.6942 220.938 20.4255 218.781 19.1965 216.585 18.0388 200.322 9.48327 180.793 4.13902 159.765 2.45011 168.883 5.62177 177.343 11.8144 184.036 20.3145ZM184.829 4.45619C199.434 7.87365 212.755 13.1783 223.975 20.1004 227.337 22.1778 230.516 24.4059 233.426 26.7213L256.587 26.7213C253.59 24.9848 250.387 23.3196 247.041 21.7417 229.525 13.4796 208.259 7.5882 184.829 4.45619Z" fill="#F8FAFC" fill-rule="nonzero" fill-opacity="1" transform="matrix(1 0 0 1.00173 87 115)"/><path d="M32.4065 84.0808 32.4065 54.0531C32.4065 53.6011 32.676 53.3315 33.128 53.3315L38.7498 53.3315C39.2017 53.3315 39.4238 53.6011 39.4238 54.0531L39.4238 78.6414 68.8171 78.6414C69.2691 78.6414 69.5387 78.9109 69.5387 79.3629L69.5387 84.0808C69.5387 84.5327 69.2691 84.8023 68.8171 84.8023L33.128 84.8023C32.676 84.8023 32.4065 84.5327 32.4065 84.0808ZM72.5597 76.5719 72.5597 54.0531C72.5597 53.6011 72.8293 53.3315 73.2812 53.3315L78.903 53.3315C79.355 53.3315 79.577 53.6011 79.577 54.0531L79.577 76.0802C79.577 78.015 80.473 78.6414 82.1857 78.6414L103.539 78.6414C105.244 78.6414 106.148 78.015 106.148 76.0802L106.148 54.0531C106.148 53.6011 106.37 53.3315 106.822 53.3315L112.443 53.3315C112.895 53.3315 113.165 53.6011 113.165 54.0531L113.165 76.5719C113.165 81.6941 110.739 84.7944 105.164 84.7944L80.5761 84.7944C75.0019 84.7944 72.5756 81.6941 72.5756 76.5719L72.5597 76.5719ZM119.278 84.0808 119.278 54.0531C119.278 53.6011 119.548 53.3315 120 53.3315L128.135 53.3315C128.587 53.3315 128.857 53.5535 129.126 54.0055L143.01 76.7066 143.637 76.7066 157.529 54.0055C157.798 53.5535 158.068 53.3315 158.52 53.3315L166.703 53.3315C167.155 53.3315 167.377 53.6011 167.377 54.0531L167.377 84.0808C167.377 84.5327 167.155 84.8023 166.703 84.8023L161.089 84.8023C160.637 84.8023 160.367 84.5327 160.367 84.0808L160.367 62.6879 159.876 62.6879 146.84 84.0808C146.57 84.5327 146.253 84.8023 145.762 84.8023L140.909 84.8023C140.457 84.8023 140.148 84.5327 139.878 84.0808L126.795 62.6879 126.304 62.6879 126.304 84.0808C126.304 84.5327 126.081 84.8023 125.63 84.8023L120.016 84.8023C119.564 84.8023 119.294 84.5327 119.294 84.0808L119.278 84.0808ZM213.041 61.2924 213.041 76.8414C213.041 81.8765 210.027 84.9768 205.492 84.9768L179.92 84.9768C175.472 84.9768 172.412 81.8765 172.412 76.8414L172.412 61.2924C172.412 56.2574 175.472 53.1571 179.92 53.1571L205.54 53.1571C209.988 53.1571 213.048 56.2574 213.048 61.2924L213.041 61.2924ZM192.813 79.3629C196.683 79.3629 199.918 76.0802 199.918 72.2188 199.918 70.736 199.466 69.388 198.705 68.2225L193.852 59.5955C193.178 58.3348 192.417 58.3348 191.743 59.5955L186.89 68.2225C186.129 69.388 185.725 70.736 185.725 72.2188 185.725 76.0802 188.872 79.3629 192.829 79.3629L192.813 79.3629ZM218.401 84.0808 218.401 54.0531C218.401 53.6011 218.67 53.3315 219.122 53.3315L225.688 53.3315C226.092 53.3315 226.274 53.5139 226.679 53.8707L250.633 76.5243 251.219 76.5243 251.219 54.0531C251.219 53.6011 251.489 53.3315 251.941 53.3315L257.563 53.3315C258.015 53.3315 258.284 53.6011 258.284 54.0531L258.284 84.0808C258.284 84.5327 258.015 84.8023 257.563 84.8023L250.997 84.8023C250.545 84.8023 250.371 84.6199 249.967 84.2631L226.052 61.6095 225.426 61.6095 225.426 84.0808C225.426 84.5327 225.204 84.8023 224.752 84.8023L219.13 84.8023C218.678 84.8023 218.409 84.5327 218.409 84.0808L218.401 84.0808Z" fill="#F8FAFC" fill-rule="nonzero" fill-opacity="1" transform="matrix(1 0 0 1.00173 87 115)"/></g></g></g></g></g></g></svg>