<svg width="494" height="236" xmlns="http://www.w3.org/2000/svg" xmlns:xlink="http://www.w3.org/1999/xlink" xml:space="preserve" overflow="hidden"><g transform="translate(-96 -104)"><g><g><g><g><g><path d="M246.132 233.939C180.587 233.939 118.937 221.88 72.5277 199.992 49.8737 189.303 32.0674 176.841 19.6191 162.942 6.60686 148.413 0 132.943 0 116.976 0 101.01 6.60686 85.5266 19.6191 71.0103 32.0809 57.1117 49.8737 44.65 72.5277 33.9609 118.937 12.0589 180.587 0 246.132 0 311.677 0 373.341 12.0589 419.737 33.9474 442.391 44.6366 460.197 57.0983 472.645 70.9969 485.671 85.5266 492.265 100.983 492.265 116.963 492.265 132.943 485.658 148.413 472.645 162.929 460.184 176.827 442.391 189.289 419.737 199.978 373.341 221.867 311.691 233.926 246.132 233.926L246.132 233.939ZM183.099 197.575C199.965 218.98 222.35 230.77 246.146 230.77 269.941 230.77 292.327 218.98 309.193 197.575 311.449 194.714 313.597 191.679 315.585 188.551L176.747 188.618C178.734 191.733 180.869 194.741 183.099 197.588L183.099 197.575ZM319.318 188.551C316.968 192.405 314.39 196.097 311.677 199.549 300.343 213.931 286.029 224.418 270.586 229.79 310.965 226.513 348.659 215.085 377.665 197.212 382.123 194.459 386.394 191.545 390.409 188.524L319.331 188.551 319.318 188.551ZM102.057 188.645C106.005 191.612 110.222 194.486 114.626 197.212 143.592 215.072 181.245 226.5 221.585 229.776 206.115 224.432 192.096 214.119 180.601 199.535 177.902 196.111 175.35 192.445 173 188.604L102.057 188.645ZM57.6489 188.671C62.7651 191.612 68.2037 194.446 73.884 197.131 103.548 211.124 139.55 221.101 179.245 226.406 154.509 220.618 131.949 211.634 112.948 199.911 107.241 196.393 101.829 192.606 96.8871 188.645L57.6354 188.645 57.6489 188.671ZM395.539 188.51C390.543 192.512 385.078 196.353 379.317 199.911 360.315 211.621 337.755 220.605 313.02 226.406 352.701 221.101 388.717 211.124 418.381 197.131 424.182 194.392 429.728 191.505 434.911 188.497L395.539 188.497 395.539 188.51ZM3.196 118.574C3.62571 133.185 9.93714 147.392 21.9826 160.834 29.9054 169.67 40.2186 178.036 52.6266 185.69L93.2749 185.69C84.5194 178.184 77.2143 170.073 71.5474 161.546 71.3326 161.223 71.3057 160.807 71.4937 160.458 71.6817 160.109 72.0309 159.894 72.4203 159.894L73.6423 159.894C73.9914 159.894 74.3271 160.069 74.5151 160.364 80.5849 169.361 88.548 177.875 98.2031 185.663L171.214 185.637C166.877 178.09 163.278 169.898 160.485 161.277 160.377 160.955 160.431 160.606 160.633 160.324 160.834 160.055 161.143 159.894 161.492 159.894L162.58 159.894C163.036 159.894 163.439 160.189 163.587 160.619 166.487 169.509 170.288 177.915 174.867 185.623L317.398 185.556C321.963 177.875 325.75 169.482 328.651 160.619 328.799 160.189 329.201 159.894 329.658 159.894L330.759 159.894C331.095 159.894 331.417 160.055 331.619 160.324 331.82 160.592 331.874 160.955 331.766 161.277 328.987 169.871 325.388 178.036 321.077 185.556L394.209 185.529C403.784 177.767 411.707 169.307 417.736 160.364 417.937 160.069 418.26 159.894 418.609 159.894L419.831 159.894C420.22 159.894 420.583 160.109 420.757 160.458 420.945 160.807 420.919 161.223 420.704 161.546 415.064 170.033 407.826 178.09 399.137 185.543L439.907 185.543C452.194 177.915 462.399 169.616 470.269 160.847 482.314 147.405 488.639 133.185 489.055 118.561L454.181 118.561C453.899 118.561 453.631 118.453 453.429 118.252 453.228 118.051 453.12 117.782 453.12 117.5L453.12 116.439C453.12 115.862 453.59 115.378 454.181 115.378L489.055 115.378C488.625 100.768 482.314 86.5606 470.269 73.1186 462.319 64.2557 451.965 55.8629 439.49 48.1951L398.882 48.1951C407.678 55.7151 415.023 63.8529 420.717 72.4203 420.932 72.7426 420.945 73.1589 420.771 73.508 420.583 73.8571 420.234 74.072 419.844 74.072L418.622 74.072C418.273 74.072 417.937 73.8974 417.749 73.602 411.666 64.578 403.649 56.0374 393.954 48.2086L320.997 48.2354C325.347 55.8091 328.973 64.0274 331.766 72.6754 331.874 72.9977 331.82 73.3469 331.619 73.6289 331.417 73.8974 331.108 74.0586 330.759 74.0586L329.658 74.0586C329.201 74.0586 328.799 73.7631 328.651 73.3334 325.737 64.4034 321.923 55.9703 317.317 48.2354L174.894 48.2891C170.301 56.0106 166.501 64.4169 163.587 73.32 163.439 73.7497 163.036 74.0451 162.58 74.0451L161.492 74.0451C161.156 74.0451 160.834 73.884 160.633 73.6154 160.431 73.3469 160.377 72.9843 160.485 72.662 163.278 64.0409 166.89 55.8494 171.228 48.2891L98.1494 48.316C88.5211 56.1046 80.5714 64.6049 74.5151 73.5751 74.3137 73.8706 73.9914 74.0451 73.6423 74.0451L72.4203 74.0451C72.0309 74.0451 71.6683 73.8303 71.4937 73.4811 71.3191 73.132 71.3326 72.7157 71.5474 72.3934 77.2009 63.8663 84.4926 55.7823 93.2211 48.3026L52.4923 48.3026C40.138 55.9569 29.8786 64.2826 21.9826 73.0917 9.93714 86.5337 3.61229 100.755 3.196 115.378L38.07 115.378C38.352 115.378 38.6206 115.486 38.822 115.687 39.0234 115.889 39.1309 116.157 39.1309 116.439L39.1309 117.5C39.1309 118.077 38.6609 118.561 38.07 118.561L3.196 118.561 3.196 118.574ZM179.245 7.54686C139.563 12.8511 103.548 22.8286 73.884 36.8211 68.1231 39.5337 62.6174 42.4074 57.4474 45.402L96.7931 45.402C101.762 41.4003 107.2 37.5866 112.948 34.0414 131.949 22.3317 154.509 13.348 179.245 7.54686ZM221.585 4.16286C181.245 7.45286 143.592 18.8806 114.626 36.7271 110.181 39.4666 105.925 42.3671 101.963 45.3617L173 45.3349C175.35 41.5077 177.915 37.8283 180.614 34.3906 192.109 19.8071 206.129 9.494 221.598 4.14943L221.585 4.16286ZM246.132 3.16914C222.337 3.16914 199.951 14.9594 183.085 36.3646 180.856 39.198 178.721 42.206 176.72 45.3483L315.504 45.2946C313.53 42.1926 311.395 39.198 309.179 36.378 292.313 14.9729 269.928 3.18257 246.132 3.18257L246.132 3.16914ZM311.677 34.404C314.363 37.8149 316.914 41.4674 319.251 45.2811L390.167 45.2543C386.233 42.2866 382.043 39.4397 377.665 36.7406 374.174 34.592 370.521 32.5106 366.801 30.55 339.259 16.0606 306.185 7.00971 270.572 4.14943 286.015 9.52086 300.343 20.0086 311.677 34.404ZM313.02 7.54686C337.755 13.3346 360.315 22.3183 379.317 34.0414 385.011 37.5597 390.395 41.3331 395.324 45.2543L434.549 45.2543C429.473 42.3134 424.047 39.4934 418.381 36.8211 388.717 22.8286 352.701 12.8511 313.02 7.54686Z" fill="#0F172A" fill-rule="nonzero" fill-opacity="1" transform="matrix(1.00035 0 0 1 97 104)"/><path d="M54.8826 142.397 54.8826 91.5426C54.8826 90.7771 55.3391 90.3206 56.1046 90.3206L65.6254 90.3206C66.3909 90.3206 66.7669 90.7771 66.7669 91.5426L66.7669 133.185 116.547 133.185C117.312 133.185 117.769 133.641 117.769 134.407L117.769 142.397C117.769 143.162 117.312 143.619 116.547 143.619L56.1046 143.619C55.3391 143.619 54.8826 143.162 54.8826 142.397ZM122.885 129.68 122.885 91.5426C122.885 90.7771 123.341 90.3206 124.107 90.3206L133.628 90.3206C134.393 90.3206 134.769 90.7771 134.769 91.5426L134.769 128.847C134.769 132.124 136.287 133.185 139.187 133.185L175.35 133.185C178.237 133.185 179.768 132.124 179.768 128.847L179.768 91.5426C179.768 90.7771 180.144 90.3206 180.91 90.3206L190.431 90.3206C191.196 90.3206 191.653 90.7771 191.653 91.5426L191.653 129.68C191.653 138.355 187.543 143.605 178.103 143.605L136.461 143.605C127.021 143.605 122.912 138.355 122.912 129.68L122.885 129.68ZM202.006 142.397 202.006 91.5426C202.006 90.7771 202.463 90.3206 203.228 90.3206L217.006 90.3206C217.771 90.3206 218.228 90.6966 218.684 91.462L242.198 129.908 243.259 129.908 266.785 91.462C267.242 90.6966 267.699 90.3206 268.464 90.3206L282.322 90.3206C283.088 90.3206 283.464 90.7771 283.464 91.5426L283.464 142.397C283.464 143.162 283.088 143.619 282.322 143.619L272.815 143.619C272.049 143.619 271.593 143.162 271.593 142.397L271.593 106.166 270.76 106.166 248.684 142.397C248.227 143.162 247.69 143.619 246.857 143.619L238.639 143.619C237.874 143.619 237.35 143.162 236.893 142.397L214.736 106.166 213.904 106.166 213.904 142.397C213.904 143.162 213.528 143.619 212.762 143.619L203.255 143.619C202.489 143.619 202.033 143.162 202.033 142.397L202.006 142.397ZM360.799 103.803 360.799 130.136C360.799 138.663 355.696 143.914 348.015 143.914L304.708 143.914C297.174 143.914 291.991 138.663 291.991 130.136L291.991 103.803C291.991 95.2757 297.174 90.0251 304.708 90.0251L348.095 90.0251C355.629 90.0251 360.812 95.2757 360.812 103.803L360.799 103.803ZM326.543 134.407C333.096 134.407 338.575 128.847 338.575 122.307 338.575 119.796 337.809 117.513 336.52 115.539L328.302 100.929C327.16 98.794 325.871 98.794 324.73 100.929L316.511 115.539C315.222 117.513 314.537 119.796 314.537 122.307 314.537 128.847 319.869 134.407 326.569 134.407L326.543 134.407ZM369.877 142.397 369.877 91.5426C369.877 90.7771 370.333 90.3206 371.099 90.3206L382.217 90.3206C382.902 90.3206 383.211 90.6294 383.896 91.2337L424.464 129.599 425.457 129.599 425.457 91.5426C425.457 90.7771 425.914 90.3206 426.679 90.3206L436.2 90.3206C436.966 90.3206 437.422 90.7771 437.422 91.5426L437.422 142.397C437.422 143.162 436.966 143.619 436.2 143.619L425.081 143.619C424.316 143.619 424.021 143.31 423.336 142.705L382.835 104.34 381.774 104.34 381.774 142.397C381.774 143.162 381.398 143.619 380.633 143.619L371.112 143.619C370.347 143.619 369.89 143.162 369.89 142.397L369.877 142.397Z" fill="#0F172A" fill-rule="nonzero" fill-opacity="1" transform="matrix(1.00035 0 0 1 97 104)"/></g></g></g></g></g></g></svg>