<svg width="482" height="85" xmlns="http://www.w3.org/2000/svg" xmlns:xlink="http://www.w3.org/1999/xlink" xml:space="preserve" overflow="hidden"><g transform="translate(-702 -252)"><g><g><g><g><path d="M23.6308 69.0831 23.6308 15.6314C23.6308 14.8316 24.147 14.3509 25.0065 14.3509L35.7567 14.3509C36.6174 14.3509 37.0482 14.8316 37.0482 15.6314L37.0482 59.4007 93.298 59.4007C94.1575 59.4007 94.6737 59.8804 94.6737 60.6812L94.6737 69.0831C94.6737 69.8828 94.1575 70.3636 93.298 70.3636L25.0065 70.3636C24.147 70.3636 23.6308 69.8828 23.6308 69.0831ZM100.474 55.7199 100.474 15.6314C100.474 14.8316 100.989 14.3509 101.849 14.3509L112.6 14.3509C113.459 14.3509 113.892 14.8316 113.892 15.6314L113.892 54.8404C113.892 58.2798 115.611 59.4007 118.88 59.4007L159.733 59.4007C163.003 59.4007 164.723 58.2798 164.723 54.8404L164.723 15.6314C164.723 14.8316 165.152 14.3509 166.013 14.3509L176.763 14.3509C177.624 14.3509 178.141 14.8316 178.141 15.6314L178.141 55.7199C178.141 64.8428 173.495 70.3636 162.832 70.3636L115.784 70.3636C105.119 70.3636 100.474 64.8428 100.474 55.7199ZM189.865 69.0831 189.865 15.6314C189.865 14.8316 190.382 14.3509 191.243 14.3509L206.81 14.3509C207.671 14.3509 208.186 14.7519 208.703 15.5516L235.279 55.9603 236.483 55.9603 263.058 15.5516C263.574 14.7519 264.091 14.3509 264.952 14.3509L280.604 14.3509C281.465 14.3509 281.895 14.8316 281.895 15.6314L281.895 69.0831C281.895 69.8828 281.465 70.3636 280.604 70.3636L269.854 70.3636C268.994 70.3636 268.479 69.8828 268.479 69.0831L268.479 30.9951 267.531 30.9951 242.588 69.0831C242.074 69.8828 241.472 70.3636 240.525 70.3636L231.236 70.3636C230.377 70.3636 229.774 69.8828 229.258 69.0831L204.23 30.9951 203.283 30.9951 203.283 69.0831C203.283 69.8828 202.855 70.3636 201.994 70.3636L191.243 70.3636C190.382 70.3636 189.865 69.8828 189.865 69.0831ZM369.297 28.515 369.297 56.1995C369.297 65.163 363.534 70.6837 354.848 70.6837L305.911 70.6837C297.395 70.6837 291.546 65.163 291.546 56.1995L291.546 28.515C291.546 19.5526 297.395 14.0308 305.911 14.0308L354.933 14.0308C363.449 14.0308 369.297 19.5526 369.297 28.515ZM330.594 60.6812C337.991 60.6812 344.184 54.8404 344.184 47.9594 344.184 45.3175 343.323 42.9172 341.86 40.8369L332.572 25.4743C331.283 23.2335 329.819 23.2335 328.53 25.4743L319.239 40.8369C317.778 42.9172 317.004 45.3175 317.004 47.9594 317.004 54.8404 323.027 60.6812 330.594 60.6812ZM379.554 69.0831 379.554 15.6314C379.554 14.8316 380.069 14.3509 380.929 14.3509L393.486 14.3509C394.261 14.3509 394.604 14.671 395.38 15.3113L441.221 55.6401 442.34 55.6401 442.34 15.6314C442.34 14.8316 442.857 14.3509 443.716 14.3509L454.467 14.3509C455.327 14.3509 455.843 14.8316 455.843 15.6314L455.843 69.0831C455.843 69.8828 455.327 70.3636 454.467 70.3636L441.909 70.3636C441.051 70.3636 440.706 70.0434 439.931 69.4032L394.176 29.0754 392.97 29.0754 392.97 69.0831C392.97 69.8828 392.541 70.3636 391.681 70.3636L380.929 70.3636C380.069 70.3636 379.554 69.8828 379.554 69.0831Z" fill="#0F172A" fill-rule="nonzero" fill-opacity="1" transform="matrix(1 0 0 1.00091 703 252)"/><path d="M451.938 2.95385C465.805 2.95385 477.046 14.1949 477.046 28.0615L477.046 56.8615C477.046 70.7281 465.805 81.9692 451.938 81.9692L28.0615 81.9692C14.1949 81.9692 2.95385 70.7281 2.95385 56.8615L2.95385 28.0615C2.95385 14.1949 14.1949 2.95385 28.0615 2.95385Z" stroke="#0F172A" stroke-width="5.90769" stroke-linecap="butt" stroke-linejoin="miter" stroke-miterlimit="4" stroke-opacity="1" fill="none" fill-rule="nonzero" transform="matrix(1 0 0 1.00091 703 252)"/></g></g></g></g></g></svg>